<svg width="20" height="20" viewBox="0 0 20 20" fill="none" xmlns="http://www.w3.org/2000/svg">
<path fill-rule="evenodd" clip-rule="evenodd" d="M19.2157 8.16137C19.2157 8.81706 18.8968 9.38914 18.4269 9.68716C18.4047 9.70121 18.3824 9.71468 18.3597 9.72738C18.3565 9.72917 18.3534 9.73118 18.3502 9.73293C18.3229 9.74792 18.2953 9.76178 18.2673 9.77489C18.2619 9.77744 18.2564 9.77981 18.2509 9.78227C18.2268 9.79328 18.2024 9.80357 18.1778 9.81309C18.1731 9.81493 18.1684 9.81681 18.1636 9.8186C18.1038 9.84101 18.0429 9.85935 17.9811 9.87322C17.9794 9.87358 17.9777 9.87385 17.976 9.87425C17.9483 9.88038 17.9204 9.88543 17.8923 9.88977C17.8855 9.89085 17.8786 9.89183 17.8718 9.89277C17.848 9.89608 17.8242 9.89863 17.8003 9.90069C17.7927 9.90136 17.7851 9.90216 17.7775 9.9027C17.7472 9.90476 17.7167 9.90606 17.6863 9.90606C17.6625 9.90606 17.6388 9.90521 17.6153 9.904C17.6057 9.90346 17.5963 9.9027 17.5868 9.90194C17.5735 9.901 17.5602 9.89984 17.547 9.8985C17.5343 9.89715 17.5217 9.89568 17.5091 9.89398C17.5005 9.89286 17.492 9.89156 17.4835 9.89022C17.4676 9.8878 17.4518 9.8853 17.436 9.8823C17.4355 9.88221 17.435 9.88212 17.4345 9.88199C17.0316 9.80451 16.6735 9.54428 16.4396 9.17025C16.435 9.16277 16.4303 9.15539 16.4257 9.14783C16.4188 9.13643 16.4122 9.12475 16.4055 9.11312C16.3994 9.10256 16.3934 9.092 16.3875 9.08122C16.3817 9.07062 16.376 9.05993 16.3704 9.04919C16.364 9.03684 16.3578 9.02445 16.3516 9.01197C16.3467 9.002 16.3418 8.99198 16.337 8.98191C16.3304 8.96764 16.324 8.95319 16.3176 8.93869C16.3137 8.92984 16.3096 8.92102 16.3059 8.91203C16.2965 8.88953 16.2875 8.86685 16.2788 8.84385C16.2748 8.83307 16.2711 8.82207 16.2673 8.81115C16.2627 8.79818 16.2581 8.78521 16.2538 8.77205C16.2493 8.75832 16.2451 8.74441 16.2409 8.7305C16.2378 8.72034 16.2347 8.71023 16.2318 8.69994C16.2273 8.68433 16.2231 8.66858 16.2191 8.65275C16.1789 8.49675 16.1569 8.33195 16.1569 8.16137V7.04884H19.2157V8.16137ZM18.2398 10.724V19.1053H8.06792V12.3435C8.06792 12.0964 7.89235 11.8961 7.67576 11.8961H3.83263C3.61608 11.8961 3.44047 12.0964 3.44047 12.3435V19.1053H1.77263V10.7275C1.77733 10.7288 1.78208 10.7296 1.78678 10.7309C1.82161 10.7402 1.85678 10.7486 1.89216 10.7561C1.90141 10.758 1.91071 10.7599 1.91996 10.7618C1.95329 10.7683 1.98686 10.7739 2.02067 10.7788C2.03118 10.7804 2.04169 10.7821 2.05224 10.7834C2.08549 10.7877 2.11898 10.791 2.15267 10.7937C2.16298 10.7945 2.17329 10.7957 2.18369 10.7963C2.22671 10.7991 2.27008 10.8008 2.31373 10.8008C2.34851 10.8008 2.38314 10.7996 2.41765 10.7978C2.42655 10.7973 2.43549 10.7969 2.44439 10.7963C2.47545 10.7943 2.50643 10.7917 2.53722 10.7882C2.55094 10.7867 2.56455 10.7848 2.57827 10.783C2.59514 10.7808 2.61192 10.7783 2.62867 10.7757C3.19914 10.6866 3.70373 10.3598 4.06333 9.88548L4.06392 9.88472C4.09439 9.8445 4.124 9.80339 4.15235 9.76107L4.15278 9.76044C4.164 9.74371 4.17494 9.72671 4.1858 9.70967C4.19447 9.69611 4.20298 9.68242 4.21141 9.66864C4.21937 9.65567 4.22757 9.64292 4.23529 9.62977C4.24302 9.64288 4.25118 9.65558 4.2591 9.66855C4.26761 9.68238 4.27612 9.69616 4.28486 9.70976C4.29565 9.72676 4.30651 9.74362 4.31773 9.76031C4.31816 9.76102 4.31863 9.7616 4.3191 9.76232C4.3471 9.80401 4.37627 9.84463 4.40631 9.88431C4.40671 9.88481 4.40714 9.88534 4.40753 9.88588C4.76714 10.3599 5.27161 10.6866 5.84188 10.7756C5.85867 10.7783 5.87545 10.7808 5.89235 10.783C5.90604 10.7848 5.91965 10.7867 5.93337 10.7882C5.96416 10.7917 5.99514 10.7943 6.0262 10.7963C6.0351 10.7969 6.04404 10.7973 6.05294 10.7978C6.08745 10.7996 6.12208 10.8008 6.15686 10.8008C6.19165 10.8008 6.22627 10.7996 6.26078 10.7978C6.26969 10.7973 6.27863 10.7969 6.28753 10.7963C6.31859 10.7943 6.34957 10.7917 6.38035 10.7882C6.39408 10.7867 6.40769 10.7848 6.42141 10.783C6.43827 10.7808 6.45506 10.7783 6.4718 10.7757C7.04227 10.6866 7.54686 10.3598 7.90647 9.88548L7.90706 9.88472C7.93753 9.8445 7.96714 9.80339 7.99549 9.76107L7.99592 9.76044C8.00714 9.74371 8.01808 9.72671 8.02894 9.70967C8.03761 9.69611 8.04612 9.68242 8.05455 9.66864C8.06251 9.65567 8.07071 9.64292 8.07843 9.62977C8.08616 9.64288 8.09431 9.65558 8.10224 9.66855C8.11075 9.68238 8.11925 9.69616 8.128 9.70976C8.13878 9.72676 8.14965 9.74362 8.16086 9.76031C8.16129 9.76102 8.16176 9.7616 8.16224 9.76232C8.19024 9.80401 8.21941 9.84463 8.24945 9.88431C8.24984 9.88481 8.25027 9.88534 8.25067 9.88588C8.61027 10.3599 9.11475 10.6866 9.68502 10.7756C9.7018 10.7783 9.71859 10.7808 9.73549 10.783C9.74918 10.7848 9.76278 10.7867 9.77651 10.7882C9.80729 10.7917 9.83827 10.7943 9.86933 10.7963C9.87824 10.7969 9.88718 10.7973 9.89608 10.7978C9.93059 10.7996 9.96522 10.8008 10 10.8008C10.0348 10.8008 10.0694 10.7996 10.1039 10.7978C10.1128 10.7973 10.1218 10.7969 10.1307 10.7963C10.1617 10.7943 10.1927 10.7917 10.2235 10.7882C10.2372 10.7867 10.2508 10.7848 10.2645 10.783C10.2814 10.7808 10.2982 10.7783 10.3149 10.7757C10.8854 10.6866 11.39 10.3598 11.7496 9.88548L11.7502 9.88472C11.7807 9.8445 11.8103 9.80339 11.8386 9.76107L11.8391 9.76044C11.8503 9.74371 11.8612 9.72671 11.8721 9.70967C11.8807 9.69611 11.8893 9.68242 11.8977 9.66864C11.9056 9.65567 11.9138 9.64292 11.9216 9.62977C11.9293 9.64288 11.9375 9.65558 11.9454 9.66855C11.9539 9.68238 11.9624 9.69616 11.9711 9.70976C11.9819 9.72676 11.9928 9.74362 12.004 9.76031C12.0044 9.76102 12.0049 9.7616 12.0054 9.76232C12.0334 9.80401 12.0625 9.84463 12.0926 9.88431C12.093 9.88481 12.0934 9.88534 12.0938 9.88588C12.4534 10.3599 12.9579 10.6866 13.5282 10.7756C13.5449 10.7783 13.5617 10.7808 13.5786 10.783C13.5923 10.7848 13.6059 10.7867 13.6196 10.7882C13.6504 10.7917 13.6814 10.7943 13.7125 10.7963C13.7214 10.7969 13.7303 10.7973 13.7392 10.7978C13.7737 10.7996 13.8084 10.8008 13.8431 10.8008C13.8779 10.8008 13.9125 10.7996 13.9471 10.7978C13.956 10.7973 13.9649 10.7969 13.9738 10.7963C14.0049 10.7943 14.0358 10.7917 14.0666 10.7882C14.0804 10.7867 14.094 10.7848 14.1077 10.783C14.1245 10.7808 14.1413 10.7783 14.1581 10.7757C14.7285 10.6866 15.2331 10.3598 15.5927 9.88548L15.5933 9.88472C15.6238 9.8445 15.6534 9.80339 15.6818 9.76107L15.6822 9.76044C15.6934 9.74371 15.7044 9.72671 15.7152 9.70967C15.7239 9.69611 15.7324 9.68242 15.7408 9.66864C15.7488 9.65567 15.757 9.64292 15.7647 9.62977C15.7724 9.64288 15.7806 9.65558 15.7885 9.66855C15.797 9.68238 15.8055 9.69616 15.8143 9.70976C15.8251 9.72676 15.8359 9.74362 15.8471 9.76031C15.8476 9.76102 15.848 9.7616 15.8485 9.76232C15.8765 9.80401 15.9057 9.84463 15.9357 9.88431C15.9361 9.88481 15.9365 9.88534 15.9369 9.88588C16.2965 10.3599 16.801 10.6866 17.3713 10.7756C17.3881 10.7783 17.4049 10.7808 17.4218 10.783C17.4355 10.7848 17.4491 10.7867 17.4628 10.7882C17.4936 10.7917 17.5245 10.7943 17.5556 10.7963C17.5645 10.7969 17.5735 10.7973 17.5824 10.7978C17.6169 10.7996 17.6515 10.8008 17.6863 10.8008C17.7306 10.8008 17.7746 10.799 17.8183 10.7962C17.8291 10.7955 17.8399 10.7942 17.8507 10.7933C17.8848 10.7906 17.9187 10.7872 17.9524 10.7828C17.9631 10.7814 17.9737 10.7797 17.9845 10.7781C18.0196 10.7729 18.0546 10.7669 18.0892 10.7599C18.0975 10.7582 18.1058 10.7566 18.114 10.7548C18.1544 10.7461 18.1944 10.7364 18.234 10.7254C18.2359 10.7249 18.2379 10.7245 18.2398 10.724ZM4.22478 19.1052H7.28361V12.7908H4.22478V19.1052ZM0.784314 7.04884H3.84314V8.16137C3.84314 8.33132 3.82129 8.49545 3.78145 8.65087C3.7771 8.66782 3.77255 8.68464 3.76776 8.70137C3.76529 8.71019 3.76263 8.71891 3.76 8.72763C3.75541 8.74289 3.75078 8.75814 3.74588 8.77317C3.74235 8.78386 3.73851 8.79438 3.73482 8.80503C3.72886 8.82216 3.72274 8.8392 3.71631 8.85607C3.70925 8.87459 3.70204 8.89298 3.69447 8.91118C3.69004 8.92174 3.68529 8.93212 3.68063 8.94254C3.67502 8.95534 3.66933 8.96818 3.66345 8.98079C3.65824 8.99197 3.65278 9.00294 3.64737 9.01398C3.64173 9.0253 3.63612 9.03662 3.63027 9.0478C3.6242 9.05948 3.61804 9.07107 3.61176 9.08256C3.60647 9.09223 3.60102 9.10176 3.59561 9.11124C3.58839 9.12386 3.58118 9.13643 3.57373 9.14877C3.57 9.15495 3.56612 9.16094 3.56235 9.16703C3.32851 9.54285 2.96941 9.80442 2.56526 9.88203C2.56526 9.88203 2.56451 9.88221 2.56408 9.8823C2.54824 9.8853 2.53231 9.8878 2.51639 9.89026C2.50788 9.89156 2.49945 9.89286 2.49094 9.89393C2.47831 9.89568 2.46569 9.89715 2.45298 9.8985C2.4398 9.89984 2.42655 9.901 2.41325 9.90194C2.40376 9.90266 2.39427 9.90346 2.38475 9.904C2.36118 9.90521 2.33753 9.90606 2.31373 9.90606C2.28357 9.90606 2.25353 9.9048 2.22349 9.90279C2.21584 9.90225 2.2082 9.9014 2.20051 9.90078C2.17729 9.89881 2.1542 9.89635 2.13106 9.89317C2.12369 9.89214 2.11635 9.89111 2.10906 9.89C2.08357 9.88606 2.05816 9.88145 2.03294 9.87608C2.02886 9.87523 2.02475 9.87447 2.02067 9.87353C1.96071 9.86025 1.90157 9.84271 1.84353 9.82128C1.83714 9.819 1.83086 9.81641 1.82451 9.81395C1.80318 9.8058 1.782 9.79699 1.76102 9.78769C1.75224 9.78379 1.74341 9.7799 1.73471 9.77583C1.71541 9.76684 1.69635 9.75718 1.67737 9.74724C1.66906 9.7429 1.66059 9.73883 1.65235 9.73432C1.62831 9.72116 1.60467 9.70712 1.58125 9.69253C1.10678 9.39598 0.784314 8.82086 0.784314 8.16137V7.04884ZM2.5809 3.12044H4.95424L3.96294 6.15413H1.06671L2.5809 3.12044ZM2.7451 0.894711H17.2941V2.22573H11.2721C11.2704 2.22568 11.2687 2.22573 11.2669 2.22573H8.75522C8.75376 2.22573 8.75231 2.22568 8.75082 2.22573H2.7451V0.894711ZM16.0597 6.15413L15.0684 3.12044H17.3821L18.9266 6.15413H16.0597ZM14.2314 3.12044L15.2227 6.15413H12.2667L11.7434 3.12044H14.2314ZM10.944 3.12044L11.4674 6.15413H8.55526L9.07863 3.12044H10.944ZM8.27929 3.12044L7.75592 6.15413H4.79996L5.79129 3.12044H8.27929ZM6.40722 9.8823C6.39137 9.8853 6.37545 9.8878 6.35953 9.89026C6.35102 9.89156 6.34259 9.89286 6.33408 9.89393C6.32145 9.89568 6.30882 9.89715 6.29612 9.8985C6.28294 9.89984 6.26969 9.901 6.25639 9.90194C6.2469 9.90266 6.23741 9.90346 6.22788 9.904C6.20431 9.90521 6.18067 9.90606 6.15686 9.90606C6.13306 9.90606 6.10937 9.90521 6.08584 9.904C6.07631 9.90346 6.06686 9.9027 6.05737 9.90194C6.04404 9.901 6.03078 9.89984 6.01757 9.8985C6.0049 9.89715 5.99227 9.89568 5.97969 9.89398C5.97114 9.89286 5.96263 9.89156 5.95412 9.89022C5.93824 9.8878 5.92235 9.8853 5.90655 9.8823C5.90608 9.88221 5.90557 9.88212 5.9051 9.88199C5.5022 9.80451 5.14412 9.54428 4.91024 9.17025C4.90561 9.16277 4.90086 9.15539 4.89627 9.14783C4.88941 9.13643 4.88275 9.12475 4.87604 9.11312C4.87 9.10256 4.86396 9.092 4.85812 9.08122C4.85231 9.07062 4.84659 9.05993 4.84098 9.04919C4.83459 9.03684 4.82835 9.02445 4.82224 9.01197C4.81733 9.002 4.81235 8.99198 4.80761 8.98191C4.80094 8.96764 4.79459 8.95319 4.78824 8.93869C4.78431 8.92984 4.78024 8.92102 4.77651 8.91203C4.7671 8.88953 4.75804 8.86685 4.74937 8.84385C4.74541 8.83307 4.74173 8.82207 4.73788 8.81115C4.73329 8.79818 4.72871 8.78521 4.72435 8.77205C4.71984 8.75832 4.71565 8.74441 4.71145 8.7305C4.70835 8.72034 4.70525 8.71023 4.70235 8.69994C4.69792 8.68433 4.69369 8.66858 4.68965 8.65275C4.64945 8.49675 4.62745 8.33195 4.62745 8.16137V7.04884H7.68627V8.16137C7.68627 8.33132 7.66443 8.49545 7.62459 8.65087C7.62024 8.66782 7.61569 8.68464 7.6109 8.70137C7.60843 8.71019 7.60576 8.71891 7.60314 8.72763C7.59855 8.74289 7.59392 8.75814 7.58902 8.77317C7.58549 8.78386 7.58165 8.79438 7.57796 8.80503C7.572 8.82216 7.56588 8.8392 7.55945 8.85607C7.55239 8.87459 7.54518 8.89298 7.53761 8.91118C7.53318 8.92174 7.52843 8.93212 7.52376 8.94254C7.51816 8.95534 7.51247 8.96818 7.50659 8.98079C7.50137 8.99197 7.49592 9.00294 7.49051 9.01398C7.48486 9.0253 7.47925 9.03662 7.47341 9.0478C7.46733 9.05948 7.46118 9.07107 7.4549 9.08256C7.44961 9.09223 7.44416 9.10176 7.43875 9.11124C7.43153 9.12386 7.42431 9.13643 7.41686 9.14877C7.41314 9.15495 7.40925 9.16094 7.40549 9.16703C7.17165 9.54285 6.81255 9.80442 6.40839 9.88203C6.40839 9.88203 6.40765 9.88221 6.40722 9.8823ZM10.2504 9.8823C10.2345 9.8853 10.2186 9.8878 10.2027 9.89026C10.1942 9.89156 10.1857 9.89286 10.1772 9.89393C10.1646 9.89568 10.152 9.89715 10.1393 9.8985C10.1261 9.89984 10.1128 9.901 10.0995 9.90194C10.09 9.90266 10.0805 9.90346 10.071 9.904C10.0475 9.90521 10.0238 9.90606 10 9.90606C9.9762 9.90606 9.95251 9.90521 9.92898 9.904C9.91945 9.90346 9.91 9.9027 9.90051 9.90194C9.88718 9.901 9.87392 9.89984 9.86071 9.8985C9.84804 9.89715 9.83541 9.89568 9.82282 9.89398C9.81427 9.89286 9.80576 9.89156 9.79726 9.89022C9.78137 9.8878 9.76549 9.8853 9.74969 9.8823C9.74922 9.88221 9.74871 9.88212 9.74824 9.88199C9.34533 9.80451 8.98725 9.54428 8.75337 9.17025C8.74874 9.16277 8.744 9.15539 8.73941 9.14783C8.73255 9.13643 8.72588 9.12475 8.71918 9.11312C8.71314 9.10256 8.7071 9.092 8.70126 9.08122C8.69545 9.07062 8.68973 9.05993 8.68412 9.04919C8.67773 9.03684 8.67149 9.02445 8.66537 9.01197C8.66047 9.002 8.65549 8.99198 8.65075 8.98191C8.64408 8.96764 8.63773 8.95319 8.63137 8.93869C8.62745 8.92984 8.62337 8.92102 8.61965 8.91203C8.61024 8.88953 8.60118 8.86685 8.59251 8.84385C8.58855 8.83307 8.58486 8.82207 8.58102 8.81115C8.57643 8.79818 8.57184 8.78521 8.56749 8.77205C8.56298 8.75832 8.55878 8.74441 8.55459 8.7305C8.55149 8.72034 8.54839 8.71023 8.54549 8.69994C8.54106 8.68433 8.53682 8.66858 8.53278 8.65275C8.49259 8.49675 8.47059 8.33195 8.47059 8.16137V7.04884H11.5294V8.16137C11.5294 8.33132 11.5076 8.49545 11.4677 8.65087C11.4634 8.66782 11.4588 8.68464 11.454 8.70137C11.4516 8.71019 11.4489 8.71891 11.4463 8.72763C11.4417 8.74289 11.4371 8.75814 11.4322 8.77317C11.4286 8.78386 11.4248 8.79438 11.4211 8.80503C11.4151 8.82216 11.409 8.8392 11.4026 8.85607C11.3955 8.87459 11.3883 8.89298 11.3807 8.91118C11.3763 8.92174 11.3716 8.93212 11.3669 8.94254C11.3613 8.95534 11.3556 8.96818 11.3497 8.98079C11.3445 8.99197 11.3391 9.00294 11.3336 9.01398C11.328 9.0253 11.3224 9.03662 11.3165 9.0478C11.3105 9.05948 11.3043 9.07107 11.298 9.08256C11.2927 9.09223 11.2873 9.10176 11.2819 9.11124C11.2747 9.12386 11.2675 9.13643 11.26 9.14877C11.2563 9.15495 11.2524 9.16094 11.2486 9.16703C11.0148 9.54285 10.6557 9.80442 10.2515 9.88203C10.2515 9.88203 10.2508 9.88221 10.2504 9.8823ZM14.0935 9.8823C14.0776 9.8853 14.0617 9.8878 14.0458 9.89026C14.0373 9.89156 14.0289 9.89286 14.0204 9.89393C14.0077 9.89568 13.9951 9.89715 13.9824 9.8985C13.9692 9.89984 13.956 9.901 13.9427 9.90194C13.9332 9.90266 13.9237 9.90346 13.9142 9.904C13.8906 9.90521 13.8669 9.90606 13.8431 9.90606C13.8193 9.90606 13.7956 9.90521 13.7721 9.904C13.7626 9.90346 13.7531 9.9027 13.7436 9.90194C13.7303 9.901 13.7171 9.89984 13.7038 9.8985C13.6912 9.89715 13.6785 9.89568 13.666 9.89398C13.6574 9.89286 13.6489 9.89156 13.6404 9.89022C13.6245 9.8878 13.6086 9.8853 13.5928 9.8823C13.5924 9.88221 13.5918 9.88212 13.5914 9.88199C13.1885 9.80451 12.8304 9.54428 12.5965 9.17025C12.5919 9.16277 12.5871 9.15539 12.5825 9.14783C12.5757 9.13643 12.569 9.12475 12.5623 9.11312C12.5563 9.10256 12.5502 9.092 12.5444 9.08122C12.5386 9.07062 12.5329 9.05993 12.5273 9.04919C12.5209 9.03684 12.5146 9.02445 12.5085 9.01197C12.5036 9.002 12.4986 8.99198 12.4939 8.98191C12.4872 8.96764 12.4809 8.95319 12.4745 8.93869C12.4706 8.92984 12.4665 8.92102 12.4628 8.91203C12.4534 8.88953 12.4443 8.86685 12.4356 8.84385C12.4317 8.83307 12.428 8.82207 12.4242 8.81115C12.4196 8.79818 12.415 8.78521 12.4106 8.77205C12.4061 8.75832 12.4019 8.74441 12.3977 8.7305C12.3946 8.72034 12.3915 8.71023 12.3886 8.69994C12.3842 8.68433 12.38 8.66858 12.3759 8.65275C12.3357 8.49675 12.3137 8.33195 12.3137 8.16137V7.04884H15.3725V8.16137C15.3725 8.33132 15.3507 8.49545 15.3109 8.65087C15.3065 8.66782 15.302 8.68464 15.2972 8.70137C15.2947 8.71019 15.292 8.71891 15.2894 8.72763C15.2848 8.74289 15.2802 8.75814 15.2753 8.77317C15.2718 8.78386 15.2679 8.79438 15.2642 8.80503C15.2583 8.82216 15.2522 8.8392 15.2457 8.85607C15.2387 8.87459 15.2315 8.89298 15.2239 8.91118C15.2195 8.92174 15.2147 8.93212 15.21 8.94254C15.2044 8.95534 15.1987 8.96818 15.1929 8.98079C15.1876 8.99197 15.1822 9.00294 15.1768 9.01398C15.1711 9.0253 15.1655 9.03662 15.1597 9.0478C15.1536 9.05948 15.1475 9.07107 15.1412 9.08256C15.1359 9.09223 15.1304 9.10176 15.125 9.11124C15.1178 9.12386 15.1106 9.13643 15.1031 9.14877C15.0994 9.15495 15.0955 9.16094 15.0918 9.16703C14.8579 9.54285 14.4988 9.80442 14.0947 9.88203C14.0947 9.88203 14.0939 9.88221 14.0935 9.8823ZM19.9998 6.59764C19.9997 6.58077 19.9986 6.56418 19.9969 6.5478C19.9964 6.54297 19.9956 6.53828 19.995 6.53349C19.9932 6.51998 19.9909 6.50665 19.988 6.49354C19.9871 6.48902 19.9861 6.48459 19.985 6.48016C19.9809 6.46361 19.9762 6.44737 19.9705 6.43163C19.9703 6.431 19.9702 6.43042 19.97 6.42979C19.9638 6.41284 19.9566 6.3966 19.9487 6.38076C19.9481 6.37951 19.9476 6.37812 19.9469 6.37678L18.0771 2.70399C18.0776 2.6937 18.0784 2.68355 18.0784 2.67308V0.447355C18.0784 0.200326 17.9028 0 17.6863 0H2.35294C2.13639 0 1.96078 0.200326 1.96078 0.447355V2.55462L0.0513726 6.38014C0.050902 6.38103 0.0505882 6.3821 0.0501176 6.383C0.0423922 6.39875 0.035451 6.41503 0.0293725 6.43185C0.0285882 6.43413 0.0279608 6.43641 0.0271765 6.43869C0.0222745 6.45301 0.0180784 6.46759 0.0144706 6.48254C0.0133725 6.48701 0.0123529 6.49153 0.0114118 6.49605C0.00858824 6.50947 0.00627451 6.52307 0.00454902 6.53689C0.004 6.54114 0.00329412 6.54534 0.00282353 6.54964C0.00109804 6.56668 0 6.58391 0 6.60149V8.16137C0 9.0546 0.391333 9.84504 0.988314 10.3228V19.5526C0.988314 19.7997 1.16392 20 1.38047 20H3.83263H7.67576H18.632C18.8486 20 19.0242 19.7997 19.0242 19.5526V10.3127C19.6141 9.8339 20 9.0483 20 8.16137V6.60149V6.60104C20 6.59992 19.9998 6.59876 19.9998 6.59764ZM10.3922 16.5365H16.0159V12.7908H10.3922V16.5365ZM16.408 11.8961H10C9.78345 11.8961 9.60784 12.0964 9.60784 12.3435V16.9838C9.60784 17.2309 9.78345 17.4312 10 17.4312H16.408C16.6246 17.4312 16.8002 17.2309 16.8002 16.9838V12.3435C16.8002 12.0964 16.6246 11.8961 16.408 11.8961ZM6.46278 15.3087C6.24623 15.3087 6.07062 15.509 6.07062 15.7561V16.6543C6.07062 16.9014 6.24623 17.1017 6.46278 17.1017C6.67933 17.1017 6.85493 16.9014 6.85493 16.6543V15.7561C6.85493 15.509 6.67933 15.3087 6.46278 15.3087Z" fill="black"/>
</svg>